<?xml version="1.0" encoding="UTF-8" standalone="no"?>
<svg width="16px" height="16px" viewBox="0 0 16 16" version="1.1" xmlns="http://www.w3.org/2000/svg" xmlns:xlink="http://www.w3.org/1999/xlink">
    <!-- Generator: Sketch 41.2 (35397) - http://www.bohemiancoding.com/sketch -->
    <title>Combined Shape</title>
    <desc>Created with Sketch.</desc>
    <defs></defs>
    <g id="LandingPage" stroke="none" stroke-width="1" fill="none" fill-rule="evenodd">
        <g id="LandingPage-v2" transform="translate(-376.000000, -85.000000)" fill="#000000">
            <g id="panel-1-top" transform="translate(120.000000, 85.000000)">
                <g id="head-top-content">
                    <g id="SetpointIQ-Q" transform="translate(256.000000, 0.000000)">
                        <path d="M0,1.00087166 C0,0.448105505 0.444630861,0 1.00087166,0 L14.9991283,0 C15.5518945,0 16,0.444630861 16,1.00087166 L16,14.9991283 C16,15.5518945 15.5553691,16 14.9991283,16 L1.00087166,16 C0.448105505,16 0,15.5553691 0,14.9991283 L0,1.00087166 Z M6.8095861,3.18211813 C7.17588278,3.07284725 7.54217946,3.03642363 7.90847614,3 L7.90847614,3.07284725 L7.90847614,4.82118131 C7.28577178,4.85760494 6.66306743,5.07614669 6.18688174,5.47680658 C6.15025207,5.51323021 6.07699274,5.54965383 6.04036307,5.58607746 C5.71069606,5.25826482 5.41765871,4.96687581 5.0879917,4.63906318 C4.97810269,4.5297923 4.86821369,4.42052142 4.75832469,4.31125054 C5.30776971,3.76489615 6.04036307,3.40065989 6.8095861,3.18211813 Z M8.27477282,3 C8.75095851,3.03642363 9.22714419,3.10927088 9.66670021,3.25496538 C10.3260342,3.47350714 10.9121089,3.8377434 11.4249243,4.31125054 C11.0952573,4.63906318 10.7655902,4.96687581 10.4359232,5.29468845 C10.3260342,5.40395933 10.2161452,5.51323021 10.1062562,5.58607746 C9.59344087,5.11257032 8.93410685,4.85760494 8.23814315,4.82118131 L8.23814315,3.07284725 C8.27477282,3.03642363 8.27477282,3.03642363 8.27477282,3 Z M3.73269398,5.62250108 C3.95247199,5.25826482 4.17225,4.89402856 4.46528734,4.56621593 L4.50191701,4.56621593 C4.90484336,4.96687581 5.34439938,5.40395933 5.74732572,5.80461922 C5.74732572,5.80461922 5.74732572,5.80461922 5.74732572,5.84104284 C5.27114004,6.35097361 5.01473236,7.00659888 4.97810269,7.69864778 L4.90484336,7.69864778 L3.14661929,7.69864778 C3.18324896,7.00659888 3.40302697,6.27812636 3.73269398,5.62250108 Z M11.6813319,4.56621593 C11.7179616,4.56621593 11.7179616,4.60263955 11.7179616,4.60263955 C12.340666,5.29468845 12.780222,6.16885548 12.9267407,7.11586976 C12.9633703,7.29798789 13,7.51652965 13,7.7350714 L11.2051463,7.7350714 L11.1685166,7.7350714 C11.1318869,7.07944613 10.8754793,6.46024449 10.4725529,5.95031372 C10.4359232,5.91389009 10.4359232,5.87746647 10.3992936,5.87746647 C10.8388496,5.44038295 11.2784056,5.00329944 11.6813319,4.56621593 Z M3.18324896,8.06288404 C3.18324896,8.09930766 3.18324896,8.09930766 3.18324896,8.06288404 C3.18324896,8.24500217 3.18324896,8.4271203 3.21987863,8.57281481 C3.3663973,9.55625271 3.80595332,10.4668434 4.50191701,11.1953159 C4.68506535,11.0496214 4.83158402,10.8675033 5.01473236,10.7218087 C5.27114004,10.4668434 5.52754772,10.211878 5.82058506,9.92048897 C5.71069606,9.8112181 5.60080705,9.66552359 5.52754772,9.51982909 C5.23451037,9.08274557 5.0879917,8.57281481 5.05136203,8.06288404 L4.46528734,8.06288404 L3.76932365,8.06288404 C3.54954564,8.06288404 3.3663973,8.06288404 3.18324896,8.06288404 Z M11.2051463,8.06288404 L12.9633703,8.06288404 L13,8.06288404 C12.9633703,8.79135656 12.780222,9.51982909 12.450555,10.1754544 C12.230777,10.5396906 12.010999,10.9039269 11.7179616,11.2317395 C11.2784056,10.794656 10.8754793,10.3939961 10.4359232,9.9569126 L10.4359232,9.92048897 C10.8754793,9.41055821 11.1685166,8.75493294 11.2051463,8.06288404 Z M6.0037334,10.211878 L6.04036307,10.211878 C6.51654875,10.6489615 7.13925311,10.9039269 7.79858714,10.9403505 L7.87184647,10.9403505 L7.87184647,12.7615318 C6.88284543,12.7251082 5.93047406,12.3972956 5.16125104,11.8145175 C5.01473236,11.7052467 4.86821369,11.5959758 4.72169502,11.4867049 C4.72169502,11.4867049 4.72169502,11.4867049 4.68506535,11.4502813 C5.16125104,11.0496214 5.60080705,10.6489615 6.0037334,10.211878 Z M8.27477282,8.46354393 L8.34803216,14.5462895 L10.2161452,12.7615318 L12.5970737,12.5429901 L8.27477282,8.46354393 Z" id="Combined-Shape"></path>
                    </g>
                </g>
            </g>
        </g>
    </g>
</svg>